<?xml version="1.0" encoding="utf-8"?>
<!-- Generator: Adobe Illustrator 24.3.0, SVG Export Plug-In . SVG Version: 6.00 Build 0)  -->
<svg version="1.1" xmlns="http://www.w3.org/2000/svg" xmlns:xlink="http://www.w3.org/1999/xlink" x="0px" y="0px"
	 viewBox="0 0 1920 1080" style="enable-background:new 0 0 1920 1080;" xml:space="preserve">
<style type="text/css">
	.st0{fill:#7979BC;}
	.st1{fill:#F2F2F2;}
</style>
<g id="Layer_1">
	<g>
		<rect class="st0" width="1920" height="1080"/>
	</g>
</g>
<g id="Stars">
	<g>
		<polygon class="st1" points="316.77,176.4 302.54,165.98 285.89,171.79 291.4,155.04 280.73,141 298.37,141.07 308.42,126.58 
			313.8,143.37 330.69,148.46 316.38,158.77 		"/>
	</g>
	<g>
		<polygon class="st1" points="222.69,163.7 215.58,158.49 207.25,161.39 210.01,153.02 204.67,146 213.49,146.03 218.52,138.79 
			221.21,147.19 229.65,149.73 222.5,154.88 		"/>
	</g>
	<g>
		<polygon class="st1" points="152.61,130.65 131.74,137.75 125.75,158.96 112.55,141.31 90.53,142.17 103.24,124.16 95.61,103.48 
			116.67,110 133.98,96.36 134.28,118.4 		"/>
	</g>
	<g>
		<polygon class="st1" points="305.95,87.35 295.01,86.06 287.74,94.35 285.58,83.54 275.46,79.18 285.07,73.8 286.08,62.82 
			294.18,70.3 304.93,67.87 300.32,77.88 		"/>
	</g>
	<g>
		<polygon class="st1" points="165.12,223.45 165.46,207.58 152.58,198.31 167.77,193.72 172.61,178.61 181.67,191.65 
			197.54,191.58 187.94,204.22 192.91,219.29 177.92,214.07 		"/>
	</g>
	<g>
		<polygon class="st1" points="126.16,466.93 119.75,462.24 112.26,464.86 114.74,457.32 109.94,451 117.88,451.03 122.4,444.51 
			124.82,452.07 132.42,454.36 125.98,458.99 		"/>
	</g>
	<g>
		<polygon class="st1" points="47.97,203.29 66.2,211.11 82.98,200.53 81.18,220.29 96.43,232.97 77.08,237.36 69.73,255.79 
			59.57,238.74 39.78,237.44 52.85,222.52 		"/>
	</g>
	<g>
		<polygon class="st1" points="136.74,193.82 128.74,187.96 119.37,191.23 122.48,181.8 116.47,173.91 126.39,173.95 132.05,165.8 
			135.08,175.24 144.57,178.1 136.53,183.9 		"/>
	</g>
	<g>
		<polygon class="st1" points="366.89,72.49 356.65,64.98 344.66,69.17 348.63,57.11 340.95,47 353.65,47.05 360.88,36.62 
			364.76,48.71 376.92,52.37 366.62,59.79 		"/>
	</g>
	<g>
		<polygon class="st1" points="188.91,104.7 181.8,99.49 173.47,102.39 176.23,94.02 170.89,87 179.71,87.03 184.74,79.79 
			187.43,88.19 195.87,90.73 188.72,95.88 		"/>
	</g>
	<g>
		<polygon class="st1" points="78.24,84.32 66.86,75.98 53.54,80.63 57.95,67.23 49.41,56 63.52,56.05 71.56,44.46 75.87,57.9 
			89.38,61.96 77.94,70.21 		"/>
	</g>
	<g>
		<polygon class="st1" points="120.35,81.27 115.02,77.37 108.78,79.55 110.84,73.26 106.84,68 113.45,68.03 117.22,62.59 
			119.24,68.89 125.58,70.8 120.21,74.66 		"/>
	</g>
	<g>
		<polygon class="st1" points="153.47,430.41 167.25,422.53 168.56,406.71 180.32,417.38 195.77,413.74 189.25,428.21 
			197.49,441.78 181.71,440.06 171.35,452.09 168.11,436.55 		"/>
	</g>
	<g>
		<polygon class="st1" points="63.38,173.52 56.98,168.83 49.48,171.44 51.97,163.9 47.16,157.59 55.1,157.62 59.62,151.1 
			62.05,158.65 69.64,160.94 63.21,165.58 		"/>
	</g>
	<g>
		<polygon class="st1" points="74.59,304.93 68.19,300.24 60.7,302.86 63.18,295.32 58.37,289 66.31,289.03 70.83,282.51 
			73.26,290.07 80.86,292.36 74.42,296.99 		"/>
	</g>
	<g>
		<polygon class="st1" points="87.97,383.91 79.96,378.05 70.6,381.32 73.7,371.9 67.69,364 77.61,364.04 83.27,355.89 86.3,365.33 
			95.8,368.19 87.75,373.99 		"/>
	</g>
	<g>
		<polygon class="st1" points="364.6,118.7 357.48,113.49 349.16,116.39 351.91,108.02 346.58,101 355.39,101.03 360.42,93.79 
			363.11,102.19 371.56,104.73 364.4,109.88 		"/>
	</g>
	<g>
		<polygon class="st1" points="471.9,123.25 454.12,110.22 433.3,117.49 440.2,96.55 426.86,79 448.9,79.08 461.47,60.97 
			468.2,81.96 489.31,88.32 471.42,101.21 		"/>
	</g>
	<g>
		<polygon class="st1" points="136.86,395.35 125.91,394.06 118.64,402.35 116.49,391.54 106.36,387.18 115.98,381.8 116.99,370.82 
			125.09,378.3 135.84,375.87 131.22,385.88 		"/>
	</g>
	<g>
		<polygon class="st1" points="68.63,473.86 55.83,464.48 40.84,469.71 45.81,454.63 36.2,442 52.07,442.06 61.12,429.02 
			65.97,444.13 81.16,448.71 68.29,457.99 		"/>
	</g>
	<g>
		<polygon class="st1" points="520.06,115.93 513.66,111.24 506.17,113.86 508.65,106.32 503.85,100 511.78,100.03 516.31,93.51 
			518.73,101.07 526.33,103.36 519.89,107.99 		"/>
	</g>
	<g>
		<polygon class="st1" points="233.74,321.82 217.73,310.1 199,316.64 205.2,297.79 193.2,282 213.04,282.08 224.35,265.78 
			230.4,284.67 249.4,290.39 233.31,301.99 		"/>
	</g>
	<g>
		<polygon class="st1" points="296.65,318.91 288.65,313.05 279.28,316.32 282.38,306.9 276.38,299 286.3,299.04 291.95,290.89 
			294.98,300.33 304.48,303.19 296.43,308.99 		"/>
	</g>
	<g>
		<polygon class="st1" points="138.8,273.49 128.56,265.98 116.57,270.17 120.54,258.11 112.85,248 125.55,248.05 132.79,237.62 
			136.67,249.71 148.83,253.37 138.52,260.79 		"/>
	</g>
	<g>
		<polygon class="st1" points="393.82,192.7 386.7,187.49 378.38,190.39 381.14,182.02 375.8,175 384.62,175.03 389.64,167.79 
			392.34,176.19 400.78,178.73 393.63,183.88 		"/>
	</g>
	<g>
		<polygon class="st1" points="215.26,72.27 209.93,68.37 203.68,70.55 205.75,64.26 201.75,59 208.36,59.03 212.13,53.59 
			214.15,59.89 220.48,61.8 215.12,65.66 		"/>
	</g>
	<g>
		<polygon class="st1" points="330.86,256.86 318.05,247.48 303.07,252.71 308.03,237.63 298.42,225 314.29,225.06 323.34,212.02 
			328.19,227.13 343.39,231.71 330.51,240.99 		"/>
	</g>
	<g>
		<polygon class="st1" points="149.28,332.93 142.88,328.24 135.39,330.86 137.87,323.32 133.07,317 141,317.03 145.53,310.51 
			147.95,318.07 155.55,320.36 149.11,324.99 		"/>
	</g>
	<g>
		<polygon class="st1" points="206.5,386.93 200.09,382.24 192.6,384.86 195.08,377.32 190.28,371 198.22,371.03 202.74,364.51 
			205.16,372.07 212.76,374.36 206.32,378.99 		"/>
	</g>
	<g>
		<polygon class="st1" points="73.87,546.91 65.87,541.05 56.5,544.32 59.6,534.9 53.6,527 63.52,527.04 69.18,518.89 72.2,528.33 
			81.7,531.19 73.66,536.99 		"/>
	</g>
	<g>
		<polygon class="st1" points="251.33,232.27 245.99,228.37 239.75,230.55 241.82,224.26 237.81,219 244.43,219.03 248.2,213.59 
			250.22,219.89 256.55,221.8 251.18,225.66 		"/>
	</g>
	<g>
		<polygon class="st1" points="392.33,137.27 386.99,133.37 380.75,135.55 382.82,129.26 378.81,124 385.43,124.03 389.2,118.59 
			391.22,124.89 397.55,126.8 392.18,130.66 		"/>
	</g>
	<g>
		<polygon class="st1" points="253.86,114.27 248.52,110.37 242.28,112.55 244.34,106.26 240.34,101 246.96,101.03 250.73,95.59 
			252.75,101.89 259.08,103.8 253.71,107.66 		"/>
	</g>
	<g>
		<polygon class="st1" points="555.76,63.27 550.42,59.37 544.18,61.55 546.25,55.26 542.24,50 548.86,50.03 552.63,44.59 
			554.65,50.89 560.98,52.8 555.61,56.66 		"/>
	</g>
</g>
</svg>
